<svg width="24" height="23" viewBox="0 0 24 23" fill="none" xmlns="http://www.w3.org/2000/svg">
<path d="M6.657 22.656C5.169 22.656 4.041 22.28 3.273 21.528C2.505 20.792 2.121 19.736 2.121 18.36V14.016C2.121 13.632 2.025 13.352 1.833 13.176C1.641 12.984 1.385 12.888 1.065 12.888H0.273V9.96H1.065C1.385 9.96 1.641 9.864 1.833 9.672C2.025 9.48 2.121 9.2 2.121 8.832V4.488C2.121 3.096 2.505 2.032 3.273 1.296C4.041 0.559999 5.169 0.191999 6.657 0.191999H8.049V3.12H7.617C7.041 3.12 6.601 3.272 6.297 3.576C6.009 3.88 5.865 4.32 5.865 4.896V8.736C5.865 9.44 5.769 9.992 5.577 10.392C5.385 10.792 5.081 11.08 4.665 11.256C4.265 11.432 3.745 11.56 3.105 11.64V11.208C3.745 11.272 4.265 11.4 4.665 11.592C5.081 11.768 5.385 12.056 5.577 12.456C5.769 12.856 5.865 13.408 5.865 14.112V17.952C5.865 18.528 6.009 18.968 6.297 19.272C6.601 19.576 7.041 19.728 7.617 19.728H8.049V22.656H6.657ZM17.352 22.656H15.96V19.728H16.392C16.968 19.728 17.4 19.576 17.688 19.272C17.992 18.968 18.144 18.528 18.144 17.952V14.112C18.144 13.408 18.24 12.856 18.432 12.456C18.64 12.056 18.944 11.768 19.344 11.592C19.744 11.4 20.264 11.272 20.904 11.208V11.64C20.264 11.56 19.744 11.432 19.344 11.256C18.944 11.08 18.64 10.792 18.432 10.392C18.24 9.992 18.144 9.44 18.144 8.736V4.896C18.144 4.32 17.992 3.88 17.688 3.576C17.4 3.272 16.968 3.12 16.392 3.12H15.96V0.191999H17.352C18.856 0.191999 19.984 0.559999 20.736 1.296C21.504 2.032 21.888 3.096 21.888 4.488V8.832C21.888 9.2 21.984 9.48 22.176 9.672C22.368 9.864 22.624 9.96 22.944 9.96H23.736V12.888H22.944C22.624 12.888 22.368 12.984 22.176 13.176C21.984 13.352 21.888 13.632 21.888 14.016V18.36C21.888 19.736 21.504 20.792 20.736 21.528C19.984 22.28 18.856 22.656 17.352 22.656Z" fill="url(#paint0_radial_21_41)"/>
<defs>
<radialGradient id="paint0_radial_21_41" cx="0" cy="0" r="1" gradientUnits="userSpaceOnUse" gradientTransform="translate(7.67751 -14.037) scale(29.93 38.2787)">
<stop stop-color="#CB5BD8"/>
<stop offset="0.23" stop-color="#D98EF3"/>
<stop offset="0.48" stop-color="#999CF7"/>
<stop offset="0.74" stop-color="#6DB5F8"/>
<stop offset="1" stop-color="#72DDFF"/>
</radialGradient>
</defs>
</svg>
