<svg width="18" height="20" viewBox="0 0 18 20" fill="none" xmlns="http://www.w3.org/2000/svg">
<path d="M4.06678 19.056C4.06678 18.84 4.04278 18.744 3.94678 18.744L3.39478 19.008C3.39478 18.888 3.32278 18.816 3.20278 18.768L3.01078 18.744C2.84278 18.744 2.77078 18.768 2.53078 18.912C2.45878 18.768 2.36278 18.6 2.29078 18.456C1.66678 17.256 1.01878 15.456 0.730781 14.664C0.586781 14.256 0.442781 13.416 0.274781 12.144C0.466781 12.264 0.610781 12.312 0.682781 12.312C0.778781 12.312 0.898781 12.144 0.994781 11.808C1.04278 11.88 1.13878 11.904 1.25878 11.904C1.33078 11.904 1.42678 11.88 1.47478 11.808L1.85878 11.232L2.29078 11.376H2.31478C2.36278 11.376 2.43478 11.304 2.55478 11.232C2.67478 11.16 2.77078 11.112 2.84278 11.112L2.91478 11.136C3.29878 11.328 3.56278 11.664 3.68278 12.192C3.97078 13.416 4.23478 14.016 4.54678 14.016C4.81078 14.016 5.17078 13.704 5.55478 13.104C5.93878 12.504 6.32278 11.688 6.75478 10.704C6.77878 10.896 6.80278 10.992 6.85078 10.992C6.99478 10.992 7.35478 10.152 8.24278 8.736C9.56278 6.6 12.8268 2.496 13.6668 1.92C14.2908 1.488 14.7708 1.08 15.1068 0.719999C15.0588 0.959999 15.0108 1.128 15.0108 1.2C15.0108 1.272 15.0588 1.296 15.1068 1.296L15.7788 0.959999V1.056C15.7788 1.176 15.8028 1.248 15.8748 1.248C15.9708 1.248 16.3548 0.863999 16.4028 0.719999L16.3548 1.056L17.1708 0.576L16.9788 1.008C17.2188 0.839999 17.4108 0.743999 17.5308 0.743999C17.6508 0.743999 17.7228 0.935999 17.7228 1.056C17.7228 1.248 17.5548 1.512 17.2908 1.848C17.0028 2.232 16.2828 2.976 14.1228 5.448C13.1868 6.504 9.03478 12.144 8.24278 13.488L6.75478 16.008C6.10678 17.088 5.69878 17.784 5.48278 18.048C5.26678 18.312 5.00278 18.576 4.69078 18.816L4.47478 18.696L4.28278 18.816L4.06678 19.056Z" fill="url(#paint0_radial_200_525)"/>
<defs>
<radialGradient id="paint0_radial_200_525" cx="0" cy="0" r="1" gradientUnits="userSpaceOnUse" gradientTransform="translate(4.67751 -14.037) scale(29.93 38.2787)">
<stop stop-color="#CB5BD8"/>
<stop offset="0.23" stop-color="#D98EF3"/>
<stop offset="0.48" stop-color="#999CF7"/>
<stop offset="0.74" stop-color="#6DB5F8"/>
<stop offset="1" stop-color="#72DDFF"/>
</radialGradient>
</defs>
</svg>
