<svg width="15" height="23" viewBox="0 0 15 23" fill="none" xmlns="http://www.w3.org/2000/svg">
<path d="M6.66228 22.88V0.319999H9.06228V22.88H6.66228ZM7.52628 20.288C6.18228 20.288 4.89428 20.112 3.66228 19.76C2.43028 19.392 1.43828 18.92 0.686282 18.344L2.00628 15.416C2.72628 15.928 3.57428 16.352 4.55028 16.688C5.54228 17.008 6.54228 17.168 7.55028 17.168C8.31828 17.168 8.93428 17.096 9.39828 16.952C9.87828 16.792 10.2303 16.576 10.4543 16.304C10.6783 16.032 10.7903 15.72 10.7903 15.368C10.7903 14.92 10.6143 14.568 10.2623 14.312C9.91028 14.04 9.44628 13.824 8.87028 13.664C8.29428 13.488 7.65428 13.328 6.95028 13.184C6.26228 13.024 5.56628 12.832 4.86228 12.608C4.17428 12.384 3.54228 12.096 2.96628 11.744C2.39028 11.392 1.91828 10.928 1.55028 10.352C1.19828 9.776 1.02228 9.04 1.02228 8.144C1.02228 7.184 1.27828 6.312 1.79028 5.528C2.31828 4.728 3.10228 4.096 4.14228 3.632C5.19828 3.152 6.51828 2.912 8.10228 2.912C9.15828 2.912 10.1983 3.04 11.2223 3.296C12.2463 3.536 13.1503 3.904 13.9343 4.4L12.7343 7.352C11.9503 6.904 11.1663 6.576 10.3823 6.368C9.59828 6.144 8.83028 6.032 8.07828 6.032C7.32628 6.032 6.71028 6.12 6.23028 6.296C5.75028 6.472 5.40628 6.704 5.19828 6.992C4.99028 7.264 4.88628 7.584 4.88628 7.952C4.88628 8.384 5.06228 8.736 5.41428 9.008C5.76628 9.264 6.23028 9.472 6.80628 9.632C7.38228 9.792 8.01428 9.952 8.70228 10.112C9.40628 10.272 10.1023 10.456 10.7903 10.664C11.4943 10.872 12.1343 11.152 12.7103 11.504C13.2863 11.856 13.7503 12.32 14.1023 12.896C14.4703 13.472 14.6543 14.2 14.6543 15.08C14.6543 16.024 14.3903 16.888 13.8623 17.672C13.3343 18.456 12.5423 19.088 11.4863 19.568C10.4463 20.048 9.12628 20.288 7.52628 20.288Z" fill="url(#paint0_radial_200_4)"/>
<defs>
<radialGradient id="paint0_radial_200_4" cx="0" cy="0" r="1" gradientUnits="userSpaceOnUse" gradientTransform="translate(3.34413 -12.037) scale(29.93 38.2787)">
<stop stop-color="#CB5BD8"/>
<stop offset="0.23" stop-color="#D98EF3"/>
<stop offset="0.48" stop-color="#999CF7"/>
<stop offset="0.74" stop-color="#6DB5F8"/>
<stop offset="1" stop-color="#72DDFF"/>
</radialGradient>
</defs>
</svg>
