<svg width="24" height="24" viewBox="0 0 24 24" fill="none" xmlns="http://www.w3.org/2000/svg">
<g id="9054987_bx_support_icon 1">
<path id="Vector" d="M15.3334 7.714C15.1048 7.84203 14.9145 8.02868 14.782 8.25471C14.6495 8.48075 14.5797 8.73801 14.5797 9C14.5797 9.26199 14.6495 9.51925 14.782 9.74529C14.9145 9.97132 15.1048 10.158 15.3334 10.286L14.8314 11.97C14.5601 11.9231 14.2811 11.9532 14.026 12.0568C13.771 12.1605 13.5501 12.3335 13.3884 12.5563C13.2267 12.7792 13.1307 13.0428 13.1112 13.3174C13.0918 13.5921 13.1497 13.8666 13.2784 14.11L11.8354 15.232C11.6443 15.0754 11.4168 14.9694 11.174 14.9237C10.9312 14.8781 10.6807 14.8942 10.4458 14.9707C10.2109 15.0472 9.99892 15.1816 9.82951 15.3614C9.66011 15.5413 9.53867 15.7609 9.47637 16L7.17237 15.994C7.10918 15.7564 6.9875 15.5383 6.81844 15.3598C6.64937 15.1812 6.43829 15.0478 6.20445 14.9718C5.97061 14.8957 5.72145 14.8794 5.47969 14.9243C5.23794 14.9693 5.01127 15.074 4.82037 15.229L3.37837 14.098C3.50361 13.8556 3.55905 13.5831 3.53851 13.311C3.51798 13.039 3.42226 12.7779 3.26205 12.557C3.10184 12.3362 2.88342 12.1641 2.63116 12.0601C2.3789 11.9561 2.1027 11.9242 1.83337 11.968L1.33337 10.278C1.55791 10.1488 1.74442 9.96263 1.8741 9.73835C2.00379 9.51407 2.07207 9.25957 2.07207 9.0005C2.07207 8.74143 2.00379 8.48693 1.8741 8.26265C1.74442 8.03837 1.55791 7.85224 1.33337 7.723L1.83337 6.033C2.1027 6.07678 2.3789 6.04488 2.63116 5.94088C2.88342 5.83687 3.10184 5.66483 3.26205 5.44396C3.42226 5.22308 3.51798 4.96205 3.53851 4.68996C3.55905 4.41787 3.50361 4.14542 3.37837 3.903L4.82037 2.77C5.01128 2.92523 5.23802 3.03016 5.4799 3.07522C5.72179 3.12028 5.97111 3.10403 6.2051 3.02796C6.43909 2.95188 6.65029 2.81841 6.81943 2.63972C6.98857 2.46103 7.11026 2.24281 7.17337 2.005L9.47637 2C9.53874 2.23893 9.66018 2.45834 9.82951 2.63807C9.99885 2.8178 10.2107 2.95207 10.4454 3.02854C10.6802 3.10502 10.9305 3.12124 11.1732 3.07571C11.4159 3.03018 11.6433 2.92437 11.8344 2.768L13.2784 3.89C13.1497 4.13338 13.0918 4.40795 13.1112 4.68256C13.1307 4.95718 13.2267 5.22085 13.3884 5.44366C13.5501 5.66648 13.771 5.83952 14.026 5.94315C14.2811 6.04679 14.5601 6.07688 14.8314 6.03L15.3334 7.714ZM8.33337 12C8.72734 12 9.11745 11.9224 9.48142 11.7716C9.8454 11.6209 10.1761 11.3999 10.4547 11.1213C10.7333 10.8427 10.9542 10.512 11.105 10.1481C11.2558 9.78407 11.3334 9.39397 11.3334 9C11.3334 8.60603 11.2558 8.21593 11.105 7.85195C10.9542 7.48797 10.7333 7.15726 10.4547 6.87868C10.1761 6.6001 9.8454 6.37913 9.48142 6.22836C9.11745 6.0776 8.72734 6 8.33337 6C7.53772 6 6.77466 6.31607 6.21205 6.87868C5.64944 7.44129 5.33337 8.20435 5.33337 9C5.33337 9.79565 5.64944 10.5587 6.21205 11.1213C6.77466 11.6839 7.53772 12 8.33337 12ZM15.7264 12.061C16.2581 10.7788 16.4459 9.38005 16.2714 8.003L17.4774 8C17.5397 8.23893 17.6612 8.45834 17.8305 8.63807C17.9998 8.8178 18.2117 8.95207 18.4464 9.02854C18.6812 9.10502 18.9315 9.12124 19.1742 9.07571C19.4169 9.03018 19.6443 8.92437 19.8354 8.768L21.2794 9.89C21.1507 10.1334 21.0928 10.4079 21.1122 10.6826C21.1317 10.9572 21.2277 11.2208 21.3894 11.4437C21.5511 11.6665 21.772 11.8395 22.0271 11.9432C22.2821 12.0468 22.5611 12.0769 22.8324 12.03L23.3334 13.714C23.1048 13.842 22.9145 14.0287 22.782 14.2547C22.6495 14.4807 22.5797 14.738 22.5797 15C22.5797 15.262 22.6495 15.5193 22.782 15.7453C22.9145 15.9713 23.1048 16.158 23.3334 16.286L22.8314 17.97C22.5601 17.9231 22.2811 17.9532 22.026 18.0568C21.771 18.1605 21.5501 18.3335 21.3884 18.5563C21.2267 18.7792 21.1307 19.0428 21.1112 19.3174C21.0918 19.5921 21.1497 19.8666 21.2784 20.11L19.8354 21.232C19.6443 21.0754 19.4168 20.9694 19.174 20.9237C18.9312 20.8781 18.6807 20.8942 18.4458 20.9707C18.2109 21.0472 17.9989 21.1816 17.8295 21.3614C17.6601 21.5413 17.5387 21.7609 17.4764 22L15.1724 21.994C15.1092 21.7564 14.9875 21.5383 14.8184 21.3598C14.6494 21.1812 14.4383 21.0478 14.2045 20.9718C13.9706 20.8957 13.7215 20.8794 13.4797 20.9243C13.2379 20.9693 13.0113 21.074 12.8204 21.229L11.3784 20.098C11.5036 19.8556 11.5591 19.5831 11.5385 19.311C11.518 19.039 11.4223 18.7779 11.2621 18.557C11.1018 18.3362 10.8834 18.1641 10.6312 18.0601C10.3789 17.9561 10.1027 17.9242 9.83337 17.968L9.52137 16.912C10.9212 16.7034 12.2401 16.1256 13.3424 15.238C13.3909 15.8452 13.6231 16.4233 14.0082 16.8954C14.3932 17.3674 14.9129 17.711 15.498 17.8806C16.0831 18.0501 16.7059 18.0375 17.2837 17.8444C17.8615 17.6513 18.3668 17.2869 18.7324 16.7997C19.098 16.3124 19.3066 15.7254 19.3305 15.1167C19.3544 14.508 19.1924 13.9065 18.8661 13.392C18.5398 12.8776 18.0646 12.4748 17.5038 12.237C16.9429 11.9992 16.323 11.9379 15.7264 12.061Z" fill="url(#paint0_radial_729_4113)"/>
</g>
<defs>
<radialGradient id="paint0_radial_729_4113" cx="0" cy="0" r="1" gradientUnits="userSpaceOnUse" gradientTransform="translate(8.67588 -11.67) scale(25.3254 34.7988)">
<stop stop-color="#CB5BD8"/>
<stop offset="0.23" stop-color="#D98EF3"/>
<stop offset="0.48" stop-color="#999CF7"/>
<stop offset="0.74" stop-color="#6DB5F8"/>
<stop offset="1" stop-color="#72DDFF"/>
</radialGradient>
</defs>
</svg>
