<svg width="24" height="20" viewBox="0 0 24 20" fill="none" xmlns="http://www.w3.org/2000/svg">
<path d="M9.99136 0.931998L6.42736 13.892L5.23936 9.032C6.78736 9.032 8.04736 9.482 9.01936 10.382C9.99136 11.282 10.4774 12.524 10.4774 14.108C10.4774 15.656 9.97336 16.916 8.96536 17.888C7.99336 18.824 6.76936 19.292 5.29336 19.292C3.78136 19.292 2.52136 18.824 1.51336 17.888C0.54136 16.916 0.0553605 15.656 0.0553605 14.108C0.0553605 13.64 0.0913605 13.19 0.16336 12.758C0.23536 12.29 0.379361 11.75 0.595361 11.138C0.81136 10.526 1.11736 9.716 1.51336 8.708L4.64536 0.931998H9.99136ZM22.7354 0.931998L19.1714 13.892L17.9834 9.032C19.5314 9.032 20.7914 9.482 21.7634 10.382C22.7354 11.282 23.2214 12.524 23.2214 14.108C23.2214 15.656 22.7174 16.916 21.7094 17.888C20.7374 18.824 19.5134 19.292 18.0374 19.292C16.5254 19.292 15.2654 18.824 14.2574 17.888C13.2854 16.916 12.7994 15.656 12.7994 14.108C12.7994 13.64 12.8354 13.19 12.9074 12.758C12.9794 12.29 13.1234 11.75 13.3394 11.138C13.5554 10.526 13.8614 9.716 14.2574 8.708L17.3894 0.931998H22.7354Z" fill="url(#paint0_radial_200_269)"/>
<defs>
<radialGradient id="paint0_radial_200_269" cx="0" cy="0" r="1" gradientUnits="userSpaceOnUse" gradientTransform="translate(7.34413 -12.037) scale(29.93 38.2787)">
<stop stop-color="#CB5BD8"/>
<stop offset="0.23" stop-color="#D98EF3"/>
<stop offset="0.48" stop-color="#999CF7"/>
<stop offset="0.74" stop-color="#6DB5F8"/>
<stop offset="1" stop-color="#72DDFF"/>
</radialGradient>
</defs>
</svg>
