<svg width="137" height="34" viewBox="0 0 137 34" fill="none" xmlns="http://www.w3.org/2000/svg">
<g clip-path="url(#clip0_161_2751)">
<path d="M61.2045 33.4998H60.1879V26.3021H61.2234V27.2001C61.2565 27.0785 61.3558 26.9382 61.5166 26.7745C61.6773 26.6108 61.8948 26.4705 62.169 26.3489C62.4433 26.2273 62.7553 26.1665 63.1052 26.1665C63.5544 26.1665 63.9515 26.2741 64.2967 26.4845C64.6418 26.695 64.9161 26.9896 65.1147 27.3685C65.3132 27.7473 65.4125 28.1916 65.4125 28.6967C65.4125 29.2018 65.3085 29.6461 65.1052 30.0249C64.9019 30.4037 64.6229 30.6984 64.2731 30.9088C63.9232 31.1193 63.5213 31.2222 63.0721 31.2222C62.708 31.2222 62.3865 31.152 62.117 31.0164C61.8428 30.8808 61.63 30.7265 61.474 30.5581C61.318 30.3897 61.2281 30.2494 61.2045 30.1512V33.5045V33.4998ZM64.4007 28.692C64.4007 28.3459 64.3298 28.0466 64.1879 27.7941C64.0461 27.5415 63.857 27.3451 63.6206 27.2048C63.3842 27.0645 63.1288 26.9943 62.8546 26.9943C62.552 26.9943 62.2778 27.0645 62.0319 27.2048C61.7861 27.3451 61.5875 27.5462 61.4456 27.7987C61.2991 28.0513 61.2281 28.3506 61.2281 28.6873C61.2281 29.0241 61.2991 29.3187 61.4456 29.5759C61.5922 29.8285 61.7861 30.0249 62.0319 30.1652C62.2778 30.3055 62.552 30.3757 62.8546 30.3757C63.1288 30.3757 63.3842 30.3055 63.6206 30.1699C63.857 30.0343 64.0461 29.8378 64.1879 29.5853C64.3298 29.3327 64.4007 29.0334 64.4007 28.6873V28.692Z" fill="white"/>
<path d="M72.7128 31.0775V30.1468C72.6797 30.245 72.5898 30.376 72.4385 30.549C72.2872 30.7174 72.0839 30.8717 71.8191 31.012C71.5591 31.1477 71.2518 31.2178 70.8972 31.2178C70.448 31.2178 70.0461 31.1149 69.682 30.9045C69.318 30.694 69.0296 30.3994 68.8168 30.0205C68.604 29.6417 68.4953 29.1974 68.4953 28.6923C68.4953 28.1872 68.604 27.7429 68.8168 27.3641C69.0296 26.9852 69.318 26.6906 69.682 26.4801C70.0461 26.2697 70.448 26.1621 70.8972 26.1621C71.247 26.1621 71.5496 26.2229 71.805 26.3492C72.0603 26.4755 72.2683 26.6158 72.4243 26.7795C72.5804 26.9431 72.6702 27.0835 72.6986 27.2004V26.3024H73.7104V31.0822H72.708L72.7128 31.0775ZM69.5118 28.6923C69.5118 29.0384 69.5875 29.3377 69.7388 29.5903C69.8901 29.8428 70.0886 30.0392 70.3345 30.1749C70.5804 30.3105 70.8404 30.3806 71.1194 30.3806C71.4173 30.3806 71.682 30.3105 71.9184 30.1702C72.1548 30.0299 72.3392 29.8335 72.4764 29.5809C72.6135 29.3284 72.6844 29.029 72.6844 28.6923C72.6844 28.3556 72.6135 28.0609 72.4764 27.8037C72.3392 27.5465 72.1548 27.35 71.9184 27.2097C71.682 27.0694 71.4173 26.9993 71.1194 26.9993C70.8404 26.9993 70.5804 27.0694 70.3345 27.2097C70.0886 27.35 69.8901 27.5465 69.7388 27.799C69.5875 28.0516 69.5118 28.3509 69.5118 28.697V28.6923Z" fill="white"/>
<path d="M79.4456 30.1514L81.0768 26.2976H82.1028L78.8452 33.4954H77.8097L78.9019 31.0727L76.9113 26.293H77.9515L79.4456 30.1467V30.1514Z" fill="white"/>
<path d="M91.0201 26.1621C91.3747 26.1621 91.682 26.2369 91.9374 26.3913C92.1927 26.5456 92.3865 26.7795 92.5236 27.0928C92.6608 27.4062 92.7269 27.8084 92.7269 28.2994V31.0822H91.7151V28.5052C91.7151 27.9908 91.6442 27.6026 91.4976 27.3407C91.3511 27.0788 91.0863 26.9525 90.7033 26.9525C90.5 26.9525 90.3061 27.0086 90.117 27.1162C89.9326 27.2284 89.7766 27.3968 89.6584 27.626C89.5402 27.8551 89.4787 28.1498 89.4787 28.5052V31.0822H88.5236V28.5052C88.5236 27.9908 88.4338 27.6026 88.2541 27.3407C88.0745 27.0788 87.8191 26.9525 87.4929 26.9525C87.2849 26.9525 87.091 27.0039 86.9066 27.1115C86.7222 27.2191 86.5756 27.3874 86.4622 27.6166C86.3487 27.8458 86.292 28.1404 86.292 28.5052V31.0822H85.2754V26.3024H86.292V27.0367C86.3345 26.9151 86.4291 26.7888 86.5709 26.6532C86.7128 26.5176 86.8972 26.4006 87.1241 26.3071C87.3511 26.2136 87.6017 26.1668 87.8806 26.1668C88.1596 26.1668 88.4149 26.2229 88.6087 26.3398C88.8026 26.4568 88.9586 26.5971 89.0721 26.7654C89.1856 26.9338 89.266 27.0975 89.3085 27.2518C89.3652 27.0835 89.4693 26.9198 89.6253 26.7467C89.7813 26.5784 89.9799 26.438 90.221 26.3258C90.4622 26.2136 90.7269 26.1621 91.0154 26.1621H91.0201Z" fill="white"/>
<path d="M97.1336 28.8934C97.1336 29.1787 97.1998 29.4406 97.3227 29.6791C97.4456 29.9176 97.6253 30.1047 97.8664 30.245C98.1076 30.3853 98.4054 30.4555 98.7553 30.4555C99.0532 30.4555 99.3085 30.4134 99.5166 30.3245C99.7246 30.2357 99.8995 30.1328 100.032 30.0112C100.164 29.8896 100.264 29.7773 100.32 29.6838L100.822 30.2965C100.694 30.4835 100.533 30.6472 100.349 30.7829C100.164 30.9232 99.9374 31.0307 99.6679 31.1056C99.4031 31.1804 99.0768 31.2178 98.6891 31.2178C98.1738 31.2178 97.7246 31.1102 97.3463 30.8904C96.9681 30.6706 96.6749 30.3666 96.4716 29.9784C96.2683 29.5903 96.1643 29.1413 96.1643 28.6362C96.1643 28.1685 96.2589 27.7522 96.4527 27.3781C96.6466 27.0039 96.9255 26.7093 97.2896 26.4895C97.6584 26.2744 98.0981 26.1621 98.6182 26.1621C99.091 26.1621 99.5071 26.2603 99.857 26.4568C100.207 26.6532 100.481 26.9291 100.675 27.2846C100.869 27.64 100.968 28.0703 100.968 28.566C100.968 28.5988 100.968 28.6502 100.963 28.7297C100.963 28.8092 100.954 28.8653 100.954 28.8934H97.1336ZM99.9941 28.1311C99.9941 27.9721 99.9421 27.799 99.857 27.6073C99.7671 27.4155 99.6253 27.2565 99.4314 27.1209C99.2329 26.9852 98.9728 26.9151 98.6371 26.9151C98.3014 26.9151 98.013 26.9806 97.805 27.1115C97.5969 27.2425 97.4409 27.4015 97.3416 27.5932C97.2423 27.7803 97.1856 27.9627 97.1714 28.1311H99.9941Z" fill="white"/>
<path d="M107.152 26.1619C107.469 26.1619 107.781 26.2274 108.079 26.3583C108.377 26.4893 108.628 26.6997 108.822 26.985C109.015 27.2703 109.115 27.6398 109.115 28.0981V31.0773H108.079V28.2946C108.079 27.8222 107.966 27.4761 107.743 27.261C107.521 27.0458 107.233 26.9383 106.878 26.9383C106.647 26.9383 106.424 27.0037 106.212 27.1347C105.999 27.2656 105.824 27.4434 105.687 27.6679C105.55 27.897 105.479 28.1543 105.479 28.4395V31.0773H104.453V26.2975H105.479V27.1487C105.512 27.0178 105.611 26.8728 105.767 26.7185C105.923 26.5641 106.122 26.4332 106.368 26.3209C106.609 26.2133 106.874 26.1572 107.157 26.1572L107.152 26.1619Z" fill="white"/>
<path d="M112.396 26.2975H113.342V24.3379H114.358V26.2975H115.597V27.1627H114.358V29.5245C114.358 29.8052 114.41 30.0109 114.509 30.1419C114.609 30.2728 114.746 30.3383 114.911 30.3383C115.063 30.3383 115.176 30.3103 115.257 30.2588C115.337 30.2074 115.389 30.1699 115.403 30.1466L115.81 30.8902C115.81 30.8902 115.725 30.9463 115.621 31.0024C115.517 31.0586 115.389 31.1053 115.228 31.1474C115.067 31.1895 114.878 31.2129 114.665 31.2129C114.287 31.2129 113.975 31.1006 113.72 30.8715C113.465 30.647 113.342 30.2869 113.342 29.7911V27.1627H112.396V26.2975Z" fill="white"/>
<path d="M61.2045 33.4998H60.1879V26.3021H61.2234V27.2001C61.2565 27.0785 61.3558 26.9382 61.5166 26.7745C61.6773 26.6108 61.8948 26.4705 62.169 26.3489C62.4433 26.2273 62.7553 26.1665 63.1052 26.1665C63.5544 26.1665 63.9515 26.2741 64.2967 26.4845C64.6418 26.695 64.9161 26.9896 65.1147 27.3685C65.3132 27.7473 65.4125 28.1916 65.4125 28.6967C65.4125 29.2018 65.3085 29.6461 65.1052 30.0249C64.9019 30.4037 64.6229 30.6984 64.2731 30.9088C63.9232 31.1193 63.5213 31.2222 63.0721 31.2222C62.708 31.2222 62.3865 31.152 62.117 31.0164C61.8428 30.8808 61.63 30.7265 61.474 30.5581C61.318 30.3897 61.2281 30.2494 61.2045 30.1512V33.5045V33.4998ZM64.4007 28.692C64.4007 28.3459 64.3298 28.0466 64.1879 27.7941C64.0461 27.5415 63.857 27.3451 63.6206 27.2048C63.3842 27.0645 63.1288 26.9943 62.8546 26.9943C62.552 26.9943 62.2778 27.0645 62.0319 27.2048C61.7861 27.3451 61.5875 27.5462 61.4456 27.7987C61.2991 28.0513 61.2281 28.3506 61.2281 28.6873C61.2281 29.0241 61.2991 29.3187 61.4456 29.5759C61.5922 29.8285 61.7861 30.0249 62.0319 30.1652C62.2778 30.3055 62.552 30.3757 62.8546 30.3757C63.1288 30.3757 63.3842 30.3055 63.6206 30.1699C63.857 30.0343 64.0461 29.8378 64.1879 29.5853C64.3298 29.3327 64.4007 29.0334 64.4007 28.6873V28.692Z" fill="white"/>
<path d="M72.7128 31.0775V30.1468C72.6797 30.245 72.5898 30.376 72.4385 30.549C72.2872 30.7174 72.0839 30.8717 71.8191 31.012C71.5591 31.1477 71.2518 31.2178 70.8972 31.2178C70.448 31.2178 70.0461 31.1149 69.682 30.9045C69.318 30.694 69.0296 30.3994 68.8168 30.0205C68.604 29.6417 68.4953 29.1974 68.4953 28.6923C68.4953 28.1872 68.604 27.7429 68.8168 27.3641C69.0296 26.9852 69.318 26.6906 69.682 26.4801C70.0461 26.2697 70.448 26.1621 70.8972 26.1621C71.247 26.1621 71.5496 26.2229 71.805 26.3492C72.0603 26.4755 72.2683 26.6158 72.4243 26.7795C72.5804 26.9431 72.6702 27.0835 72.6986 27.2004V26.3024H73.7104V31.0822H72.708L72.7128 31.0775ZM69.5118 28.6923C69.5118 29.0384 69.5875 29.3377 69.7388 29.5903C69.8901 29.8428 70.0886 30.0392 70.3345 30.1749C70.5804 30.3105 70.8404 30.3806 71.1194 30.3806C71.4173 30.3806 71.682 30.3105 71.9184 30.1702C72.1548 30.0299 72.3392 29.8335 72.4764 29.5809C72.6135 29.3284 72.6844 29.029 72.6844 28.6923C72.6844 28.3556 72.6135 28.0609 72.4764 27.8037C72.3392 27.5465 72.1548 27.35 71.9184 27.2097C71.682 27.0694 71.4173 26.9993 71.1194 26.9993C70.8404 26.9993 70.5804 27.0694 70.3345 27.2097C70.0886 27.35 69.8901 27.5465 69.7388 27.799C69.5875 28.0516 69.5118 28.3509 69.5118 28.697V28.6923Z" fill="white"/>
<path d="M79.4456 30.1514L81.0768 26.2976H82.1028L78.8452 33.4954H77.8097L78.9019 31.0727L76.9113 26.293H77.9515L79.4456 30.1467V30.1514Z" fill="white"/>
<path d="M91.0201 26.1621C91.3747 26.1621 91.682 26.2369 91.9374 26.3913C92.1927 26.5456 92.3865 26.7795 92.5236 27.0928C92.6608 27.4062 92.7269 27.8084 92.7269 28.2994V31.0822H91.7151V28.5052C91.7151 27.9908 91.6442 27.6026 91.4976 27.3407C91.3511 27.0788 91.0863 26.9525 90.7033 26.9525C90.5 26.9525 90.3061 27.0086 90.117 27.1162C89.9326 27.2284 89.7766 27.3968 89.6584 27.626C89.5402 27.8551 89.4787 28.1498 89.4787 28.5052V31.0822H88.5236V28.5052C88.5236 27.9908 88.4338 27.6026 88.2541 27.3407C88.0745 27.0788 87.8191 26.9525 87.4929 26.9525C87.2849 26.9525 87.091 27.0039 86.9066 27.1115C86.7222 27.2191 86.5756 27.3874 86.4622 27.6166C86.3487 27.8458 86.292 28.1404 86.292 28.5052V31.0822H85.2754V26.3024H86.292V27.0367C86.3345 26.9151 86.4291 26.7888 86.5709 26.6532C86.7128 26.5176 86.8972 26.4006 87.1241 26.3071C87.3511 26.2136 87.6017 26.1668 87.8806 26.1668C88.1596 26.1668 88.4149 26.2229 88.6087 26.3398C88.8026 26.4568 88.9586 26.5971 89.0721 26.7654C89.1856 26.9338 89.266 27.0975 89.3085 27.2518C89.3652 27.0835 89.4693 26.9198 89.6253 26.7467C89.7813 26.5784 89.9799 26.438 90.221 26.3258C90.4622 26.2136 90.7269 26.1621 91.0154 26.1621H91.0201Z" fill="white"/>
<path d="M97.1336 28.8934C97.1336 29.1787 97.1998 29.4406 97.3227 29.6791C97.4456 29.9176 97.6253 30.1047 97.8664 30.245C98.1076 30.3853 98.4054 30.4555 98.7553 30.4555C99.0532 30.4555 99.3085 30.4134 99.5166 30.3245C99.7246 30.2357 99.8995 30.1328 100.032 30.0112C100.164 29.8896 100.264 29.7773 100.32 29.6838L100.822 30.2965C100.694 30.4835 100.533 30.6472 100.349 30.7829C100.164 30.9232 99.9374 31.0307 99.6679 31.1056C99.4031 31.1804 99.0768 31.2178 98.6891 31.2178C98.1738 31.2178 97.7246 31.1102 97.3463 30.8904C96.9681 30.6706 96.6749 30.3666 96.4716 29.9784C96.2683 29.5903 96.1643 29.1413 96.1643 28.6362C96.1643 28.1685 96.2589 27.7522 96.4527 27.3781C96.6466 27.0039 96.9255 26.7093 97.2896 26.4895C97.6584 26.2744 98.0981 26.1621 98.6182 26.1621C99.091 26.1621 99.5071 26.2603 99.857 26.4568C100.207 26.6532 100.481 26.9291 100.675 27.2846C100.869 27.64 100.968 28.0703 100.968 28.566C100.968 28.5988 100.968 28.6502 100.963 28.7297C100.963 28.8092 100.954 28.8653 100.954 28.8934H97.1336ZM99.9941 28.1311C99.9941 27.9721 99.9421 27.799 99.857 27.6073C99.7671 27.4155 99.6253 27.2565 99.4314 27.1209C99.2329 26.9852 98.9728 26.9151 98.6371 26.9151C98.3014 26.9151 98.013 26.9806 97.805 27.1115C97.5969 27.2425 97.4409 27.4015 97.3416 27.5932C97.2423 27.7803 97.1856 27.9627 97.1714 28.1311H99.9941Z" fill="white"/>
<path d="M107.152 26.1619C107.469 26.1619 107.781 26.2274 108.079 26.3583C108.377 26.4893 108.628 26.6997 108.822 26.985C109.015 27.2703 109.115 27.6398 109.115 28.0981V31.0773H108.079V28.2946C108.079 27.8222 107.966 27.4761 107.743 27.261C107.521 27.0458 107.233 26.9383 106.878 26.9383C106.647 26.9383 106.424 27.0037 106.212 27.1347C105.999 27.2656 105.824 27.4434 105.687 27.6679C105.55 27.897 105.479 28.1543 105.479 28.4395V31.0773H104.453V26.2975H105.479V27.1487C105.512 27.0178 105.611 26.8728 105.767 26.7185C105.923 26.5641 106.122 26.4332 106.368 26.3209C106.609 26.2133 106.874 26.1572 107.157 26.1572L107.152 26.1619Z" fill="white"/>
<path d="M112.396 26.2975H113.342V24.3379H114.358V26.2975H115.597V27.1627H114.358V29.5245C114.358 29.8052 114.41 30.0109 114.509 30.1419C114.609 30.2728 114.746 30.3383 114.911 30.3383C115.063 30.3383 115.176 30.3103 115.257 30.2588C115.337 30.2074 115.389 30.1699 115.403 30.1466L115.81 30.8902C115.81 30.8902 115.725 30.9463 115.621 31.0024C115.517 31.0586 115.389 31.1053 115.228 31.1474C115.067 31.1895 114.878 31.2129 114.665 31.2129C114.287 31.2129 113.975 31.1006 113.72 30.8715C113.465 30.647 113.342 30.2869 113.342 29.7911V27.1627H112.396V26.2975Z" fill="white"/>
<path d="M48.6087 7.99712C47.9279 7.55282 47.1241 7.33301 46.2069 7.33301C45.5544 7.33301 44.9775 7.4359 44.4716 7.64636C43.9657 7.85682 43.5544 8.10469 43.2423 8.38998C42.9303 8.67527 42.7269 8.9325 42.6324 9.15699V7.60894H39.63V22.0044H42.5946V15.4988C42.656 15.6765 42.831 15.9197 43.1099 16.2331C43.3936 16.5418 43.7861 16.8224 44.2872 17.0703C44.7884 17.3181 45.3889 17.4444 46.0887 17.4444C47.0154 17.4444 47.8239 17.2246 48.5236 16.785C49.2234 16.3453 49.7671 15.7467 50.1596 14.9797C50.552 14.2174 50.7459 13.3521 50.7459 12.3887C50.7459 11.4253 50.5615 10.5647 50.1879 9.79772C49.8144 9.03539 49.2896 8.43207 48.604 7.98777L48.6087 7.99712ZM47.474 13.8105C47.2423 14.2174 46.935 14.5354 46.552 14.7599C46.169 14.9844 45.7388 15.0966 45.2707 15.0966C44.779 15.0966 44.3298 14.9844 43.9279 14.7552C43.526 14.526 43.2139 14.208 42.9823 13.8011C42.7506 13.3942 42.6371 12.9265 42.6371 12.3981C42.6371 11.8696 42.7506 11.4019 42.9823 10.995C43.2139 10.5881 43.5307 10.2654 43.9279 10.0362C44.3298 9.8024 44.7742 9.68547 45.2707 9.68547C45.7671 9.68547 46.169 9.8024 46.552 10.0269C46.935 10.2561 47.2423 10.5741 47.474 10.981C47.7057 11.3879 47.8191 11.8602 47.8191 12.3934C47.8191 12.9265 47.7057 13.3989 47.474 13.8058V13.8105Z" fill="url(#paint0_linear_161_2751)"/>
<path d="M59.0626 7.52964C58.6986 7.40337 58.292 7.33789 57.8428 7.33789C57.2234 7.33789 56.6938 7.45481 56.2541 7.6793C55.8144 7.90379 55.474 8.1657 55.2234 8.45566C55.039 8.6708 54.9066 8.85787 54.831 9.01689V7.6185H51.8428V17.1734H54.831V12.2018C54.831 11.8698 54.9113 11.5097 55.0768 11.1262C55.2423 10.7427 55.4882 10.4153 55.8191 10.1487C56.1501 9.88211 56.5615 9.74648 57.0532 9.74648C57.4693 9.74648 57.8144 9.81196 58.0934 9.94291C58.3723 10.0739 58.5615 10.2048 58.6655 10.3264L59.8428 7.90379C59.6868 7.77752 59.4267 7.65124 59.0579 7.52497L59.0626 7.52964Z" fill="url(#paint1_linear_161_2751)"/>
<path d="M67.8806 9.16187C67.7955 8.93738 67.6064 8.68483 67.3085 8.39954C67.0154 8.11425 66.6277 7.86638 66.1548 7.65592C65.682 7.44078 65.1194 7.33789 64.4764 7.33789C63.5496 7.33789 62.7317 7.5577 62.0177 8.00201C61.3038 8.44631 60.7459 9.04963 60.3392 9.81196C59.9373 10.5743 59.734 11.4395 59.734 12.4029C59.734 13.3664 59.9373 14.2269 60.3392 14.9939C60.7411 15.7563 61.3038 16.3596 62.0177 16.7992C62.7317 17.2388 63.5496 17.4586 64.4764 17.4586C65.1336 17.4586 65.7104 17.3324 66.2021 17.0798C66.6939 16.8273 67.0816 16.5467 67.3747 16.238C67.6631 15.9293 67.8475 15.6861 67.9137 15.5177V17.1827H70.8451V7.61383H67.8806V9.16187ZM67.5355 13.8013C67.3132 14.2082 67.0059 14.5262 66.6229 14.7554C66.24 14.9846 65.8002 15.0968 65.3038 15.0968C64.8073 15.0968 64.396 14.9846 63.9988 14.7601C63.5969 14.5356 63.2754 14.2176 63.0343 13.8107C62.7931 13.4038 62.6702 12.9314 62.6702 12.3983C62.6702 11.8651 62.7931 11.3927 63.0343 10.9859C63.2754 10.579 63.5969 10.2609 63.9988 10.0318C64.4007 9.8026 64.8357 9.69036 65.3038 9.69036C65.8002 9.69036 66.2352 9.80728 66.6229 10.0411C67.0059 10.275 67.3132 10.593 67.5355 10.9999C67.7577 11.4068 67.8712 11.8745 67.8712 12.4029C67.8712 12.9314 67.7577 13.3991 67.5355 13.806V13.8013Z" fill="url(#paint2_linear_161_2751)"/>
<path d="M80.2352 9.16187C80.1501 8.93738 79.961 8.68483 79.6631 8.39954C79.37 8.11425 78.9823 7.86638 78.5095 7.65592C78.0366 7.44078 77.474 7.33789 76.831 7.33789C75.9043 7.33789 75.0863 7.5577 74.3723 8.00201C73.6584 8.44631 73.1005 9.04963 72.6939 9.81196C72.292 10.5743 72.0887 11.4395 72.0887 12.4029C72.0887 13.3664 72.292 14.2269 72.6939 14.9939C73.0957 15.7563 73.6584 16.3596 74.3723 16.7992C75.0863 17.2388 75.9043 17.4586 76.831 17.4586C77.4882 17.4586 78.065 17.3324 78.5567 17.0798C79.0485 16.8273 79.4362 16.5467 79.7293 16.238C80.0177 15.9293 80.2021 15.6861 80.2683 15.5177V17.2762C80.2683 17.8094 80.1548 18.2818 79.9232 18.684C79.6915 19.0862 79.3652 19.3995 78.9444 19.6194C78.5236 19.8392 78.0225 19.9514 77.4456 19.9514C76.8357 19.9514 76.3251 19.8813 75.9137 19.7363C75.5071 19.5913 75.1714 19.4136 74.9066 19.2031C74.6418 18.988 74.4291 18.7775 74.2636 18.5671L72.4527 20.3817C72.8073 20.8307 73.247 21.1955 73.7719 21.4761C74.2967 21.7567 74.883 21.9625 75.5307 22.0934C76.1785 22.2244 76.8546 22.2898 77.5591 22.2898C78.6182 22.2898 79.5733 22.1074 80.4196 21.7427C81.266 21.3779 81.9421 20.8353 82.4433 20.1151C82.9444 19.3949 83.195 18.5063 83.195 17.4493V7.61383H80.2305V9.16187H80.2352ZM79.8901 13.8013C79.6678 14.2082 79.3605 14.5262 78.9775 14.7554C78.5946 14.9846 78.1548 15.0968 77.6584 15.0968C77.1619 15.0968 76.7506 14.9846 76.3534 14.7601C75.9515 14.5356 75.63 14.2176 75.3889 13.8107C75.1478 13.4038 75.0248 12.9314 75.0248 12.3983C75.0248 11.8651 75.1478 11.3927 75.3889 10.9859C75.63 10.579 75.9515 10.2609 76.3534 10.0318C76.7553 9.8026 77.1903 9.69036 77.6584 9.69036C78.1548 9.69036 78.5898 9.80728 78.9775 10.0411C79.3605 10.275 79.6678 10.593 79.8901 10.9999C80.1123 11.4068 80.2258 11.8745 80.2258 12.4029C80.2258 12.9314 80.1123 13.3991 79.8901 13.806V13.8013Z" fill="url(#paint3_linear_161_2751)"/>
<path d="M99.5969 7.78666C99.0579 7.48267 98.4291 7.33301 97.7104 7.33301C97.1383 7.33301 96.6087 7.4359 96.1218 7.637C95.6348 7.83811 95.2329 8.09066 94.9113 8.39466C94.5898 8.69865 94.3723 8.99797 94.2636 9.30197C94.1359 8.97459 93.9563 8.66592 93.7151 8.3666C93.474 8.06728 93.1619 7.8194 92.779 7.62765C92.396 7.4359 91.9137 7.33768 91.3321 7.33768C90.7979 7.33768 90.3014 7.43122 89.8381 7.60894C89.3747 7.79134 88.987 8.01115 88.6797 8.26838C88.3676 8.52561 88.1738 8.77348 88.0839 9.012V7.61362H85.1194V17.1685H88.0839V12.0613C88.0839 11.4954 88.1738 11.0231 88.3487 10.6489C88.5236 10.2748 88.7695 9.98947 89.0768 9.79304C89.3889 9.60129 89.734 9.50308 90.117 9.50308C90.7128 9.50308 91.1478 9.72757 91.422 10.1765C91.6962 10.6255 91.8333 11.2569 91.8333 12.0613V17.1685H94.5851V12.0613C94.5851 11.5095 94.6749 11.0464 94.8593 10.6629C95.0437 10.2841 95.2943 9.99415 95.6064 9.79772C95.9184 9.60129 96.2636 9.50308 96.6418 9.50308C97.3085 9.50308 97.7624 9.72757 97.9988 10.1765C98.2352 10.6255 98.3582 11.2569 98.3582 12.0613V17.1685H101.299V11.5796C101.299 10.6021 101.148 9.8024 100.845 9.17569C100.543 8.55367 100.122 8.08598 99.5875 7.78666H99.5969Z" fill="url(#paint4_linear_161_2751)"/>
<path d="M110.604 9.16187C110.519 8.93738 110.33 8.68483 110.032 8.39954C109.734 8.11425 109.351 7.86638 108.878 7.65592C108.405 7.44546 107.843 7.33789 107.2 7.33789C106.273 7.33789 105.455 7.5577 104.741 8.00201C104.027 8.44631 103.469 9.04963 103.063 9.81196C102.661 10.5743 102.457 11.4395 102.457 12.4029C102.457 13.3664 102.661 14.2269 103.063 14.9939C103.465 15.7563 104.027 16.3596 104.741 16.7992C105.455 17.2388 106.273 17.4586 107.2 17.4586C107.857 17.4586 108.434 17.3324 108.926 17.0798C109.417 16.8273 109.805 16.5467 110.098 16.238C110.387 15.9293 110.571 15.6861 110.637 15.5177V17.1827H113.569V7.61383H110.604V9.16187ZM110.254 13.8013C110.032 14.2082 109.725 14.5262 109.342 14.7554C108.959 14.9846 108.519 15.0968 108.022 15.0968C107.526 15.0968 107.115 14.9846 106.717 14.7601C106.316 14.5356 105.994 14.2176 105.753 13.8107C105.512 13.4038 105.389 12.9314 105.389 12.3983C105.389 11.8651 105.512 11.3927 105.753 10.9859C105.994 10.579 106.316 10.2609 106.717 10.0318C107.119 9.8026 107.554 9.69036 108.022 9.69036C108.514 9.69036 108.954 9.80728 109.342 10.0411C109.725 10.275 110.032 10.593 110.254 10.9999C110.476 11.4068 110.59 11.8745 110.59 12.4029C110.59 12.9314 110.476 13.3991 110.254 13.806V13.8013Z" fill="url(#paint5_linear_161_2751)"/>
<path d="M120.803 14.8256C120.647 14.9238 120.448 14.9706 120.202 14.9706C119.881 14.9706 119.644 14.8443 119.498 14.5917C119.346 14.3392 119.275 13.9837 119.275 13.5254V10.0692H121.559V7.61384H119.275V3.68994H116.311V7.61384H114.571V10.0692H116.311V14.3158C116.311 15.3868 116.599 16.1772 117.181 16.6823C117.762 17.1921 118.495 17.4446 119.379 17.4446C119.871 17.4446 120.32 17.3978 120.713 17.2996C121.11 17.2014 121.436 17.0939 121.691 16.9816C121.947 16.8694 122.098 16.7852 122.145 16.7384L121.086 14.6198C121.053 14.6572 120.959 14.7274 120.803 14.8256Z" fill="url(#paint6_linear_161_2751)"/>
<path d="M125.592 1.89379C125.327 1.73478 125.03 1.65527 124.708 1.65527C124.221 1.65527 123.805 1.82832 123.46 2.17908C123.115 2.52985 122.94 2.94141 122.94 3.41378C122.94 3.88614 123.11 4.29303 123.45 4.63444C123.791 4.97585 124.212 5.1489 124.703 5.1489C125.195 5.1489 125.606 4.97585 125.956 4.63444C126.306 4.29303 126.481 3.88614 126.481 3.41378C126.481 3.0864 126.401 2.79175 126.235 2.52985C126.07 2.26794 125.852 2.05281 125.587 1.89379H125.592Z" fill="url(#paint7_linear_161_2751)"/>
<path d="M126.16 7.61377H123.181V17.1686H126.16V7.61377Z" fill="url(#paint8_linear_161_2751)"/>
<path d="M131.999 10.0224C132.387 9.79793 132.798 9.68568 133.228 9.68568C133.583 9.68568 133.885 9.73245 134.141 9.82599C134.396 9.91952 134.599 10.0177 134.76 10.13C134.921 10.2422 135.025 10.3264 135.077 10.3872L136.5 8.33874C136.382 8.23585 136.169 8.10957 135.866 7.95056C135.559 7.79155 135.181 7.65124 134.732 7.52497C134.278 7.39869 133.767 7.33789 133.186 7.33789C132.164 7.33789 131.252 7.539 130.443 7.94121C129.635 8.34342 128.996 8.92335 128.533 9.67633C128.065 10.4293 127.833 11.3319 127.833 12.3889C127.833 13.4459 128.065 14.3392 128.533 15.0968C129.001 15.8545 129.635 16.4344 130.443 16.8413C131.252 17.2482 132.164 17.454 133.186 17.454C133.772 17.454 134.297 17.3932 134.755 17.2716C135.214 17.15 135.592 17.0143 135.89 16.86C136.188 16.7057 136.391 16.5841 136.5 16.4999L135.11 14.4654C135.006 14.5496 134.798 14.6806 134.476 14.8489C134.155 15.022 133.739 15.1062 133.228 15.1062C132.798 15.1062 132.387 14.9939 131.999 14.7694C131.611 14.5449 131.294 14.2269 131.053 13.82C130.812 13.4131 130.689 12.9361 130.689 12.3936C130.689 11.8511 130.812 11.3787 131.053 10.9718C131.294 10.5649 131.611 10.2563 131.999 10.0271V10.0224Z" fill="url(#paint9_linear_161_2751)"/>
<path d="M4.04137 29.3091V27.7798H0.514184V32.8027H3.85225C7.04373 32.8027 9.73877 30.6748 10.5709 27.7798H6.73168C6.14539 28.6544 5.16194 29.2483 4.04137 29.3091Z" fill="url(#paint10_linear_161_2751)"/>
<path d="M10.8262 21.228H7.29905V23.1035H10.8262V21.228Z" fill="url(#paint11_linear_161_2751)"/>
<path d="M2.48227 24.7819C1.12057 24.7819 0.0141844 25.8763 0.0141844 27.2232V28.2802H3.54137V28.2708H6.24113C6.24113 28.2708 6.24113 28.2755 6.23641 28.2802H10.0756C10.0756 28.2802 10.0756 28.2755 10.0756 28.2708H15.0969C18.2317 28.2708 20.9598 27.6722 23.2151 26.4936C25.5177 25.2917 27.2861 23.6267 28.4775 21.5548C29.6548 19.5064 30.2506 17.2054 30.2506 14.7079C30.2506 10.5829 28.9031 7.22492 26.2411 4.72747C23.6028 2.2534 19.8534 1 15.0922 1H0V19.0761C0 20.6569 1.30024 21.9384 2.89362 21.9384H5.56028H15.4988C17.1111 21.9384 18.5295 21.625 19.7116 21.003C20.9409 20.3576 21.8913 19.4643 22.5343 18.3418C23.1631 17.2474 23.4799 16.0221 23.4799 14.6986C23.4799 12.5145 22.7565 10.7279 21.3239 9.38095C19.9196 8.06208 17.9574 7.39328 15.4941 7.39328H6.79905V10.8822H15.4988C17.026 10.8822 18.1702 11.2283 18.8983 11.9111C19.6123 12.5799 19.9574 13.4919 19.9574 14.6986C19.9574 15.4188 19.7967 16.0455 19.4704 16.6161C19.1584 17.1586 18.6998 17.5842 18.0615 17.9162C17.3901 18.267 16.5295 18.4447 15.4988 18.4447H12.9078V18.4588H4.54374V18.4447H3.52719V4.48895H15.0922C18.9173 4.48895 21.8534 5.41964 23.8109 7.25765C25.7683 9.10034 26.7234 11.537 26.7234 14.7079C26.7234 16.6161 26.2931 18.2904 25.409 19.8291C24.5437 21.335 23.2861 22.5089 21.565 23.4069C19.8251 24.3189 17.6501 24.7819 15.0969 24.7819" fill="url(#paint12_linear_161_2751)"/>
<path d="M13.4078 17.9633V17.9492H10.8262V10.3867H7.29905V17.9492H5.04374V17.9633H13.4078Z" fill="url(#paint13_linear_161_2751)"/>
</g>
<defs>
<linearGradient id="paint0_linear_161_2751" x1="38.292" y1="12.5337" x2="154.448" y2="62.1702" gradientUnits="userSpaceOnUse">
<stop stop-color="#A0CD43"/>
<stop offset="0.24" stop-color="#86C656"/>
<stop offset="0.5" stop-color="#71C165"/>
<stop offset="0.75" stop-color="#65BE6E"/>
<stop offset="1" stop-color="#61BE72"/>
</linearGradient>
<linearGradient id="paint1_linear_161_2751" x1="40.9633" y1="6.28559" x2="157.119" y2="55.9221" gradientUnits="userSpaceOnUse">
<stop stop-color="#A0CD43"/>
<stop offset="0.24" stop-color="#86C656"/>
<stop offset="0.5" stop-color="#71C165"/>
<stop offset="0.75" stop-color="#65BE6E"/>
<stop offset="1" stop-color="#61BE72"/>
</linearGradient>
<linearGradient id="paint2_linear_161_2751" x1="42.6702" y1="2.29623" x2="158.826" y2="51.928" gradientUnits="userSpaceOnUse">
<stop stop-color="#A0CD43"/>
<stop offset="0.24" stop-color="#86C656"/>
<stop offset="0.5" stop-color="#71C165"/>
<stop offset="0.75" stop-color="#65BE6E"/>
<stop offset="1" stop-color="#61BE72"/>
</linearGradient>
<linearGradient id="paint3_linear_161_2751" x1="43.6537" y1="-0.00947404" x2="159.809" y2="49.6223" gradientUnits="userSpaceOnUse">
<stop stop-color="#A0CD43"/>
<stop offset="0.24" stop-color="#86C656"/>
<stop offset="0.5" stop-color="#71C165"/>
<stop offset="0.75" stop-color="#65BE6E"/>
<stop offset="1" stop-color="#61BE72"/>
</linearGradient>
<linearGradient id="paint4_linear_161_2751" x1="46.5095" y1="-6.70228" x2="162.67" y2="42.9342" gradientUnits="userSpaceOnUse">
<stop stop-color="#A0CD43"/>
<stop offset="0.24" stop-color="#86C656"/>
<stop offset="0.5" stop-color="#71C165"/>
<stop offset="0.75" stop-color="#65BE6E"/>
<stop offset="1" stop-color="#61BE72"/>
</linearGradient>
<linearGradient id="paint5_linear_161_2751" x1="49.143" y1="-12.8615" x2="165.303" y2="36.775" gradientUnits="userSpaceOnUse">
<stop stop-color="#A0CD43"/>
<stop offset="0.24" stop-color="#86C656"/>
<stop offset="0.5" stop-color="#71C165"/>
<stop offset="0.75" stop-color="#65BE6E"/>
<stop offset="1" stop-color="#61BE72"/>
</linearGradient>
<linearGradient id="paint6_linear_161_2751" x1="51.2281" y1="-17.7395" x2="167.389" y2="31.8971" gradientUnits="userSpaceOnUse">
<stop stop-color="#A0CD43"/>
<stop offset="0.24" stop-color="#86C656"/>
<stop offset="0.5" stop-color="#71C165"/>
<stop offset="0.75" stop-color="#65BE6E"/>
<stop offset="1" stop-color="#61BE72"/>
</linearGradient>
<linearGradient id="paint7_linear_161_2751" x1="54.7031" y1="-25.8634" x2="170.859" y2="23.7733" gradientUnits="userSpaceOnUse">
<stop stop-color="#A0CD43"/>
<stop offset="0.24" stop-color="#86C656"/>
<stop offset="0.5" stop-color="#71C165"/>
<stop offset="0.75" stop-color="#65BE6E"/>
<stop offset="1" stop-color="#61BE72"/>
</linearGradient>
<linearGradient id="paint8_linear_161_2751" x1="51.4363" y1="-18.2259" x2="167.592" y2="31.4104" gradientUnits="userSpaceOnUse">
<stop stop-color="#A0CD43"/>
<stop offset="0.24" stop-color="#86C656"/>
<stop offset="0.5" stop-color="#71C165"/>
<stop offset="0.75" stop-color="#65BE6E"/>
<stop offset="1" stop-color="#61BE72"/>
</linearGradient>
<linearGradient id="paint9_linear_161_2751" x1="52.7221" y1="-21.2331" x2="168.878" y2="28.3987" gradientUnits="userSpaceOnUse">
<stop stop-color="#A0CD43"/>
<stop offset="0.24" stop-color="#86C656"/>
<stop offset="0.5" stop-color="#71C165"/>
<stop offset="0.75" stop-color="#65BE6E"/>
<stop offset="1" stop-color="#61BE72"/>
</linearGradient>
<linearGradient id="paint10_linear_161_2751" x1="8.2825" y1="22.5978" x2="2.86432" y2="33.3509" gradientUnits="userSpaceOnUse">
<stop stop-color="#A0CD43"/>
<stop offset="0.24" stop-color="#86C656"/>
<stop offset="0.5" stop-color="#71C165"/>
<stop offset="0.75" stop-color="#65BE6E"/>
<stop offset="1" stop-color="#61BE72"/>
</linearGradient>
<linearGradient id="paint11_linear_161_2751" x1="9.45035" y1="3.06305" x2="8.86745" y2="32.4855" gradientUnits="userSpaceOnUse">
<stop stop-color="#A0CD43"/>
<stop offset="0.24" stop-color="#86C656"/>
<stop offset="0.5" stop-color="#71C165"/>
<stop offset="0.75" stop-color="#65BE6E"/>
<stop offset="1" stop-color="#61BE72"/>
</linearGradient>
<linearGradient id="paint12_linear_161_2751" x1="0" y1="14.6378" x2="30.2459" y2="14.6378" gradientUnits="userSpaceOnUse">
<stop stop-color="#A0CD43"/>
<stop offset="0.24" stop-color="#86C656"/>
<stop offset="0.5" stop-color="#71C165"/>
<stop offset="0.75" stop-color="#65BE6E"/>
<stop offset="1" stop-color="#61BE72"/>
</linearGradient>
<linearGradient id="paint13_linear_161_2751" x1="9.53073" y1="3.06274" x2="8.9432" y2="32.4852" gradientUnits="userSpaceOnUse">
<stop stop-color="#A0CD43"/>
<stop offset="0.24" stop-color="#86C656"/>
<stop offset="0.5" stop-color="#71C165"/>
<stop offset="0.75" stop-color="#65BE6E"/>
<stop offset="1" stop-color="#61BE72"/>
</linearGradient>
<clipPath id="clip0_161_2751">
<rect width="136" height="33" fill="white" transform="translate(0.5 0.5)"/>
</clipPath>
</defs>
</svg>
