<svg width="22" height="22" viewBox="0 0 22 22" fill="none" xmlns="http://www.w3.org/2000/svg">
<rect width="22" height="22" rx="4" fill="#E6EDED" style="mix-blend-mode:overlay"/>
<mask id="path-2-inside-1_187_1729" fill="white">
<path d="M16.7053 18H13.7913C13.2503 18 12.8101 17.5601 12.8101 17.0191V13.0941C12.8101 12.8818 12.6372 12.709 12.4249 12.709H9.50393C9.29157 12.709 9.1187 12.8818 9.1187 13.0941V17.0191C9.1187 17.5599 8.67863 18 8.13749 18H5.2237C4.54889 18 4 17.4512 4 16.7767V10.2341C4 9.58441 4.28929 8.97681 4.79357 8.56701L9.98744 4.34693C10.2627 4.12325 10.6097 4 10.9646 4C11.3194 4 11.6664 4.12325 11.9417 4.34693L17.1355 8.56701C17.6398 8.97681 17.9291 9.58441 17.9291 10.2341V16.7767C17.9291 17.4513 17.3801 18 16.7054 18H16.7053ZM9.50408 11.978H12.425C13.0406 11.978 13.5415 12.4787 13.5415 13.0941V17.0191C13.5415 17.1569 13.6537 17.269 13.7915 17.269H16.7054C16.977 17.269 17.1979 17.0481 17.1979 16.7767V10.2341C17.1979 9.80547 17.007 9.40459 16.6743 9.13426L11.4804 4.91419C11.1814 4.67135 10.7475 4.67135 10.4486 4.91419L5.25485 9.13426C4.92212 9.40459 4.73126 9.80547 4.73126 10.2341V16.7767C4.73126 17.0482 4.95225 17.269 5.2237 17.269H8.13764C8.27541 17.269 8.38758 17.157 8.38758 17.0191V13.0941C8.38758 12.4787 8.8885 11.978 9.50408 11.978Z"/>
</mask>
<path d="M16.7053 18H13.7913C13.2503 18 12.8101 17.5601 12.8101 17.0191V13.0941C12.8101 12.8818 12.6372 12.709 12.4249 12.709H9.50393C9.29157 12.709 9.1187 12.8818 9.1187 13.0941V17.0191C9.1187 17.5599 8.67863 18 8.13749 18H5.2237C4.54889 18 4 17.4512 4 16.7767V10.2341C4 9.58441 4.28929 8.97681 4.79357 8.56701L9.98744 4.34693C10.2627 4.12325 10.6097 4 10.9646 4C11.3194 4 11.6664 4.12325 11.9417 4.34693L17.1355 8.56701C17.6398 8.97681 17.9291 9.58441 17.9291 10.2341V16.7767C17.9291 17.4513 17.3801 18 16.7054 18H16.7053ZM9.50408 11.978H12.425C13.0406 11.978 13.5415 12.4787 13.5415 13.0941V17.0191C13.5415 17.1569 13.6537 17.269 13.7915 17.269H16.7054C16.977 17.269 17.1979 17.0481 17.1979 16.7767V10.2341C17.1979 9.80547 17.007 9.40459 16.6743 9.13426L11.4804 4.91419C11.1814 4.67135 10.7475 4.67135 10.4486 4.91419L5.25485 9.13426C4.92212 9.40459 4.73126 9.80547 4.73126 10.2341V16.7767C4.73126 17.0482 4.95225 17.269 5.2237 17.269H8.13764C8.27541 17.269 8.38758 17.157 8.38758 17.0191V13.0941C8.38758 12.4787 8.8885 11.978 9.50408 11.978Z" fill="#263238"/>
<path d="M4.79357 8.56701L4.16297 7.7909L4.16291 7.79095L4.79357 8.56701ZM9.98744 4.34693L10.618 5.12304L10.6181 5.12298L9.98744 4.34693ZM11.9417 4.34693L11.311 5.12298L11.3111 5.12304L11.9417 4.34693ZM17.1355 8.56701L17.7662 7.79095L17.7661 7.7909L17.1355 8.56701ZM16.6743 9.13426L16.0437 9.91037L16.0437 9.91039L16.6743 9.13426ZM11.4804 4.91419L12.111 4.13808L12.1109 4.13801L11.4804 4.91419ZM10.4486 4.91419L9.81806 4.13801L9.81797 4.13809L10.4486 4.91419ZM5.25485 9.13426L5.88542 9.91039L5.88546 9.91037L5.25485 9.13426ZM16.7053 17H13.7913V19H16.7053V17ZM13.7913 17C13.7927 17 13.7962 17.0005 13.7997 17.002C13.8026 17.0032 13.8041 17.0044 13.8048 17.0052C13.8055 17.0059 13.8068 17.0074 13.8081 17.0104C13.8096 17.014 13.8101 17.0176 13.8101 17.0191H11.8101C11.8101 18.1128 12.6985 19 13.7913 19V17ZM13.8101 17.0191V13.0941H11.8101V17.0191H13.8101ZM13.8101 13.0941C13.8101 12.3292 13.1892 11.709 12.4249 11.709V13.709C12.0853 13.709 11.8101 13.4344 11.8101 13.0941H13.8101ZM12.4249 11.709H9.50393V13.709H12.4249V11.709ZM9.50393 11.709C8.73962 11.709 8.1187 12.3292 8.1187 13.0941H10.1187C10.1187 13.4344 9.84352 13.709 9.50393 13.709V11.709ZM8.1187 13.0941V17.0191H10.1187V13.0941H8.1187ZM8.1187 17.0191C8.1187 17.0176 8.11921 17.014 8.12075 17.0104C8.122 17.0074 8.12329 17.0059 8.124 17.0052C8.12472 17.0045 8.1262 17.0032 8.12908 17.002C8.13264 17.0005 8.13612 17 8.13749 17V19C9.23067 19 10.1187 18.1125 10.1187 17.0191H8.1187ZM8.13749 17H5.2237V19H8.13749V17ZM5.2237 17C5.10091 17 5 16.8986 5 16.7767H3C3 18.0037 3.99686 19 5.2237 19V17ZM5 16.7767V10.2341H3V16.7767H5ZM5 10.2341C5 9.88566 5.15351 9.56307 5.42423 9.34307L4.16291 7.79095C3.42507 8.39055 3 9.28317 3 10.2341H5ZM5.42416 9.34312L10.618 5.12304L9.35684 3.57082L4.16297 7.7909L5.42416 9.34312ZM10.6181 5.12298C10.7151 5.04418 10.8394 5 10.9646 5V3C10.3801 3 9.8103 3.20231 9.35677 3.57089L10.6181 5.12298ZM10.9646 5C11.0897 5 11.214 5.04418 11.311 5.12298L12.5723 3.57089C12.1188 3.20231 11.549 3 10.9646 3V5ZM11.3111 5.12304L16.5049 9.34312L17.7661 7.7909L12.5723 3.57082L11.3111 5.12304ZM16.5049 9.34307C16.7756 9.56307 16.9291 9.88566 16.9291 10.2341H18.9291C18.9291 9.28317 18.504 8.39055 17.7662 7.79095L16.5049 9.34307ZM16.9291 10.2341V16.7767H18.9291V10.2341H16.9291ZM16.9291 16.7767C16.9291 16.8986 16.8282 17 16.7054 17V19C17.9319 19 18.9291 18.004 18.9291 16.7767H16.9291ZM16.7054 17H16.7053V19H16.7054V17ZM9.50408 12.978H12.425V10.978H9.50408V12.978ZM12.425 12.978C12.4887 12.978 12.5415 13.0314 12.5415 13.0941H14.5415C14.5415 11.9261 13.5926 10.978 12.425 10.978V12.978ZM12.5415 13.0941V17.0191H14.5415V13.0941H12.5415ZM12.5415 17.0191C12.5415 17.7095 13.1018 18.269 13.7915 18.269V16.269C14.2057 16.269 14.5415 16.6042 14.5415 17.0191H12.5415ZM13.7915 18.269H16.7054V16.269H13.7915V18.269ZM16.7054 18.269C17.5291 18.269 18.1979 17.6005 18.1979 16.7767H16.1979C16.1979 16.4957 16.4249 16.269 16.7054 16.269V18.269ZM18.1979 16.7767V10.2341H16.1979V16.7767H18.1979ZM18.1979 10.2341C18.1979 9.50424 17.8712 8.81829 17.3048 8.35813L16.0437 9.91039C16.1428 9.99089 16.1979 10.1067 16.1979 10.2341H18.1979ZM17.3049 8.35815L12.111 4.13808L10.8498 5.6903L16.0437 9.91037L17.3049 8.35815ZM12.1109 4.13801C11.4446 3.59674 10.4844 3.59674 9.81806 4.13801L11.0791 5.69037C11.0107 5.74596 10.9183 5.74596 10.8499 5.69037L12.1109 4.13801ZM9.81797 4.13809L4.62424 8.35816L5.88546 9.91037L11.0792 5.69029L9.81797 4.13809ZM4.62428 8.35813C4.0579 8.81829 3.73126 9.50424 3.73126 10.2341H5.73126C5.73126 10.1067 5.78635 9.99089 5.88542 9.91039L4.62428 8.35813ZM3.73126 10.2341V16.7767H5.73126V10.2341H3.73126ZM3.73126 16.7767C3.73126 17.601 4.4005 18.269 5.2237 18.269V16.269C5.50401 16.269 5.73126 16.4954 5.73126 16.7767H3.73126ZM5.2237 18.269H8.13764V16.269H5.2237V18.269ZM8.13764 18.269C8.82698 18.269 9.38758 17.71 9.38758 17.0191H7.38758C7.38758 16.604 7.72384 16.269 8.13764 16.269V18.269ZM9.38758 17.0191V13.0941H7.38758V17.0191H9.38758ZM9.38758 13.0941C9.38758 13.0314 9.44045 12.978 9.50408 12.978V10.978C8.33655 10.978 7.38758 11.9261 7.38758 13.0941H9.38758Z" fill="#263238" mask="url(#path-2-inside-1_187_1729)"/>
</svg>