<svg width="22" height="22" viewBox="0 0 22 22" fill="none" xmlns="http://www.w3.org/2000/svg">
<path d="M6.08732 1.83328C6.88941 1.83328 7.6743 2.05672 8.35608 2.48067L8.94618 2.84734L9.63368 2.73276C10.1207 2.64682 10.6191 2.60672 11.1175 2.60672C13.4379 2.60672 15.615 3.49474 17.2478 5.11037C18.8749 6.71454 19.7743 8.85153 19.7743 11.1203C19.7743 11.7333 19.7056 12.3463 19.5738 12.9422L19.4306 13.5781L19.7228 14.1625C20.015 14.7411 20.1639 15.3599 20.1639 16.0073C20.1639 18.3047 18.2561 20.1724 15.9129 20.1724C15.1967 20.1724 14.5207 20.0062 13.8962 19.6739L13.3347 19.376L12.7103 19.4906C12.1889 19.588 11.6504 19.6338 11.1175 19.6338C8.79722 19.6338 6.62013 18.7458 4.98732 17.1302C3.36023 15.526 2.46075 13.389 2.46075 11.1203C2.46075 10.5474 2.51804 9.96871 2.63262 9.40726L2.77585 8.70829L2.40919 8.09527C2.03679 7.45933 1.83627 6.73746 1.83627 5.99839C1.83627 3.70099 3.74409 1.83328 6.08732 1.83328ZM6.08732 -6.10352e-05C2.73002 -6.10352e-05 0.00292969 2.68692 0.00292969 5.99839C0.00292969 7.10985 0.306576 8.14684 0.83939 9.03486C0.70189 9.70517 0.627411 10.4041 0.627411 11.1146C0.627411 16.8323 5.32534 21.4615 11.1175 21.4615C11.7764 21.4615 12.4181 21.4042 13.0368 21.2896C13.8962 21.7422 14.8759 22 15.9129 22C19.2759 22 21.9973 19.313 21.9973 16.0015C21.9973 15.0448 21.7681 14.1396 21.3613 13.3375C21.5217 12.6213 21.6019 11.8823 21.6019 11.1203C21.6019 5.40829 16.904 0.773378 11.1061 0.773378C10.4931 0.773378 9.89723 0.824941 9.31285 0.922337C8.38472 0.337961 7.27899 -6.10352e-05 6.08732 -6.10352e-05Z" fill="#263238"/>
<path d="M16.4973 16.0474C16.0103 16.7234 15.2941 17.262 14.366 17.6401C13.4436 18.0182 12.3436 18.2073 11.0832 18.2073C9.57641 18.2073 8.31599 17.9437 7.32484 17.4281C6.62015 17.05 6.04151 16.5458 5.59463 15.9156C5.14776 15.2854 4.92432 14.6552 4.92432 14.0479C4.92432 13.6698 5.07328 13.3432 5.35973 13.0682C5.64619 12.8047 6.01859 12.6672 6.45401 12.6672C6.81495 12.6672 7.12432 12.7703 7.37641 12.9823C7.61703 13.1828 7.82328 13.4807 7.98943 13.8703C8.17849 14.2885 8.37901 14.6437 8.59672 14.9245C8.80297 15.1937 9.09516 15.4172 9.47329 15.5948C9.85714 15.7724 10.367 15.864 10.9972 15.864C11.8624 15.864 12.5728 15.6807 13.1056 15.3198C13.6327 14.9703 13.8848 14.5463 13.8848 14.0307C13.8848 13.6239 13.753 13.3031 13.478 13.051C13.1915 12.7875 12.8191 12.5812 12.3551 12.4437C11.8795 12.2948 11.2321 12.1401 10.4301 11.9739C9.34152 11.7448 8.41912 11.4698 7.68005 11.1604C6.92953 10.8453 6.32224 10.4041 5.87536 9.85985C5.44567 9.30985 5.21651 8.61089 5.21651 7.79162C5.21651 7.00672 5.45713 6.30776 5.92692 5.70047C6.39672 5.0989 7.07849 4.62911 7.96651 4.30828C8.83735 3.98744 9.87433 3.82703 11.0431 3.82703C11.9827 3.82703 12.8019 3.93588 13.4894 4.14213C14.1827 4.35411 14.7613 4.64057 15.2254 4.99578C15.6837 5.35099 16.0275 5.72911 16.2452 6.12443C16.4629 6.52547 16.5717 6.92078 16.5717 7.30464C16.5717 7.67131 16.4285 8.00933 16.1421 8.30152C15.8556 8.59371 15.4947 8.74839 15.065 8.74839C14.6754 8.74839 14.3717 8.65673 14.1598 8.47339C13.965 8.30152 13.7587 8.03798 13.5353 7.65412C13.2717 7.16714 12.9566 6.77755 12.5957 6.50255C12.2405 6.23901 11.6561 6.10151 10.8426 6.10151C10.092 6.10151 9.47902 6.25047 9.02641 6.54266C8.59099 6.82339 8.37901 7.14995 8.37901 7.53381C8.37901 7.7687 8.44776 7.9635 8.59099 8.13537C8.73995 8.31298 8.9462 8.47339 9.21547 8.60516C9.49048 8.74266 9.77693 8.85152 10.0577 8.926C10.3499 9.00621 10.8368 9.12652 11.5071 9.27548C12.3608 9.45308 13.14 9.65933 13.8275 9.87131C14.5264 10.0948 15.128 10.364 15.6207 10.6791C16.1249 11 16.5202 11.4182 16.8066 11.9109C17.0874 12.4036 17.2306 13.0224 17.2306 13.7328C17.2306 14.5922 16.9842 15.3713 16.4973 16.0474Z" fill="#263238"/>
</svg>
