<svg width="131" height="22" viewBox="0 0 131 22" fill="none" xmlns="http://www.w3.org/2000/svg">
<g id="Layer_1" clip-path="url(#clip0_2318_4791)">
<path id="Vector" d="M8.51456 5.32601H1.10786V0.5L16.3661 0.530055L7.85152 16.7083H16.257V21.5043H0L8.51456 5.32601Z" fill="white"/>
<g id="Group">
<path id="Vector_2" d="M19.7904 0.684756L17.1802 5.46783H30.2353V0.671875L19.7904 0.684756Z" fill="#51C8E8"/>
<path id="Vector_3" d="M28.6533 8.61523H15.8752L13.6553 13.4155H28.6533V8.61523Z" fill="#51C8E8"/>
<path id="Vector_4" d="M30.2356 16.7041H19.2661V21.5001H30.2356V16.7041Z" fill="#51C8E8"/>
</g>
<g id="Group_2">
<path id="Vector_5" d="M38.0364 9.16014H34.0834V6.58398L42.2245 6.60116L37.6797 15.2313H42.1657V17.7903H33.4917L38.0364 9.16014Z" fill="white"/>
<path id="Vector_6" d="M43.1143 6.66113H45.6153V17.7901H43.1143V6.66113Z" fill="white"/>
<path id="Vector_7" d="M47.0923 6.66113H49.5934V15.2312H53.559V17.7901H47.0923V6.66113Z" fill="white"/>
<path id="Vector_8" d="M55.0405 6.66113H57.5416V15.2312H61.5072V17.7901H55.0405V6.66113Z" fill="white"/>
<path id="Vector_9" d="M65.3594 16.4418L64.9145 17.79H62.2666L65.9679 6.67383H68.3346L71.8429 17.79H69.2075L68.7795 16.4418H65.3594ZM67.1177 11.1864L66.2154 13.8828H67.9779L67.1177 11.1864Z" fill="white"/>
<path id="Vector_10" d="M78.5152 10.9159H82.141V13.4749H78.5152V15.231H82.9844V17.79H76.0142V6.691L82.9844 6.67383V9.23281H78.5152V10.9159Z" fill="white"/>
<path id="Vector_11" d="M84.4658 6.66113H86.9669V15.2312H90.9325V17.7901H84.4658V6.66113Z" fill="white"/>
<path id="Vector_12" d="M92.4136 6.66113H94.9146V17.7901H92.4136V6.66113Z" fill="white"/>
<path id="Vector_13" d="M100.391 9.20311V17.7903H97.8899V9.20311H95.8169V6.62695H102.477V9.20311H100.391Z" fill="white"/>
<path id="Vector_14" d="M106.816 6.66113H109.317V15.2312H113.283V17.7901H106.816V6.66113Z" fill="white"/>
<path id="Vector_15" d="M117.488 9.20311V17.7903H114.987V9.20311H112.914V6.62695H119.573V9.20311H117.488Z" fill="white"/>
<path id="Vector_16" d="M122.976 6.63143C123.715 6.67007 124.399 6.85041 125.02 7.15955C125.649 7.47298 126.203 7.88087 126.678 8.38752C127.139 8.89416 127.513 9.47809 127.79 10.1436C128.054 10.8091 128.188 11.5218 128.188 12.2775C128.188 13.0332 128.054 13.7202 127.79 14.3685C127.521 15.0125 127.156 15.5879 126.694 16.0945C126.22 16.6012 125.666 16.9919 125.037 17.2753C124.386 17.5801 123.698 17.7519 122.981 17.7905H120.479V6.61426H122.981V6.63143H122.976ZM122.976 15.2186C123.362 15.1671 123.723 15.0641 124.055 14.9009C124.391 14.7206 124.676 14.5059 124.915 14.2655C125.171 13.9821 125.36 13.6858 125.477 13.3724C125.616 12.9988 125.683 12.6339 125.683 12.2818C125.683 11.9297 125.612 11.539 125.477 11.1483C125.339 10.7962 125.146 10.4785 124.898 10.1951C124.651 9.91174 124.365 9.68418 124.038 9.51244C123.711 9.34069 123.358 9.23335 122.972 9.19471V15.2229L122.976 15.2186Z" fill="white"/>
<path id="Vector_17" d="M131 16.4724C131 16.8374 130.878 17.1422 130.631 17.3956C130.375 17.6575 130.068 17.7906 129.712 17.7906C129.355 17.7906 129.065 17.6575 128.809 17.3956C128.553 17.1336 128.423 16.8245 128.423 16.4724C128.423 16.1204 128.553 15.794 128.809 15.5321C129.065 15.2702 129.359 15.1543 129.712 15.1543C130.064 15.1543 130.383 15.2788 130.631 15.5321C130.878 15.7855 131 16.0989 131 16.4724Z" fill="white"/>
</g>
</g>
<defs>
<clipPath id="clip0_2318_4791">
<rect width="131" height="21" fill="white" transform="translate(0 0.5)"/>
</clipPath>
</defs>
</svg>
